<svg xmlns="http://www.w3.org/2000/svg" viewBox="0 0 100 100">
  <polygon fill="none" stroke="#000000" stroke-width="2" stroke-miterlimit="10" points="46.125,10.75 50.281,9.844 49.688,17.375 49.813,21.813 51.594,22.469 53.344,22.313 54.322,22.49 55.469,24.552 56.688,32.344 58.625,47.406 58.844,58.5 56.969,57.781 55.813,45.844 55.375,42.094 54.844,39.75 54.049,38.563 53.864,48.594 53.902,52.93 53.141,62.094 52.547,71.563 52.203,81.125 52.859,90.156 50.734,90.156 48.734,90.156 47.172,80.75 46.859,75.344 45.947,64.677 44.73,56.175 44.656,52.594 44.284,37.505 42.938,45.969 41.656,57 41.281,60.875 39.594,59.125 39.594,50.594 40.094,39.938 41.719,26.031 44.375,23.781 45.5,23.125 46.5,21.063 45.938,18.031"/>
  <polyline fill="none" stroke="#000000" stroke-width="2" stroke-miterlimit="10" points="49.836,61.93 49.836,81.055 50.404,89.825"/>
</svg>
